# File produced by Open Asset Import Library (http://www.assimp.sf.net)
# (assimp v3.1.187496374)

mtllib cluster rock small.obj.mtl

# 22 vertex positions
v  -20.2366 2.03722 -6.32111
v  -18.2918 5.03722 -8.74816
v  -20.2366 2.03722 -11.1752
v  -3.90983 4.89039 -11.626
v  -3.90983 0.0372167 -11.626
v  -6.763 2.03722 -15.5531
v  -6.763 0.0372167 -15.5531
v  -16.8535 2.03722 -15.8317
v  -13.9443 5.03722 -14.732
v  -12.237 2.03722 -17.3317
v  -3.90983 5.03722 -11.4716
v  -12.237 0.0372167 -17.3317
v  -16.8535 0.0372167 -15.8317
v  -20.2366 0.0372167 -11.1752
v  -20.2366 0.0372167 -6.32111
v  -12.0902 5.03722 -0.21235
v  -12.237 4.89039 -0.164642
v  -16.8535 2.03722 -1.66464
v  -16.8535 0.0372167 -1.66464
v  -12.237 0.0372167 -0.164642
v  -3.90983 0.0372167 -2.8703
v  -3.90983 5.03722 -2.8703

# 0 UV coordinates

# 22 vertex normals
vn -0.839102 0.543974 0
vn 0.809017 0 -0.587785
vn -0.259296 0.543975 -0.798033
vn 0.218508 0.707107 -0.672499
vn 0.218508 0.707107 -0.672498
vn 0.218492 0.707116 -0.672494
vn -0.309017 0 -0.951057
vn -0.572062 0.707106 -0.415627
vn -0.572061 0.707107 -0.415627
vn -1 0 0
vn -0.572062 0.707106 0.415628
vn -0.572063 0.707106 0.415627
vn -0.309017 0 0.951057
vn 1 0 0
vn 0 1 0
vn 0.309017 0 0.951057
vn 0.309017 -4.15444e-09 0.951057
vn 0.309017 0 0.951057
vn 0 -1 0
vn -0.809018 0 0.587784
vn -0.809017 0 -0.587785
vn 0.309017 0 -0.951056

# Mesh '<STL_BINARY>' with 40 faces
g <STL_BINARY>
usemtl DefaultMaterial
f  1//1 2//1 3//1
f  4//2 5//2 6//2
f  5//2 7//2 6//2
f  8//3 9//3 10//3
f  6//4 10//4 9//4
f  6//4 9//4 11//5
f  6//6 11//6 4//6
f  12//7 13//7 8//7
f  12//7 8//7 10//7
f  3//8 2//8 8//8
f  2//8 9//9 8//8
f  14//10 15//10 1//10
f  14//10 1//10 3//10
f  16//11 2//11 17//11
f  2//11 1//12 18//12
f  2//11 18//12 17//11
f  18//13 19//13 20//13
f  18//13 20//13 17//13
f  5//14 4//14 11//14
f  5//14 11//14 21//14
f  11//14 22//14 21//14
f  11//15 9//15 16//15
f  11//15 16//15 22//15
f  9//15 2//15 16//15
f  16//16 17//16 20//16
f  16//16 20//16 21//17
f  16//16 21//17 22//18
f  7//19 5//19 20//19
f  7//19 20//19 19//19
f  7//19 19//19 15//19
f  7//19 15//19 14//19
f  7//19 14//19 12//19
f  5//19 21//19 20//19
f  14//19 13//19 12//19
f  1//20 15//20 18//20
f  15//20 19//20 18//20
f  8//21 13//21 3//21
f  13//21 14//21 3//21
f  6//22 7//22 10//22
f  7//22 12//22 10//22

