# File produced by Open Asset Import Library (http://www.assimp.sf.net)
# (assimp v3.1.187496374)

mtllib rock6_1.obj.mtl

# 19 vertex positions
v  -7.64886 2 3.23607
v  -7.22362 -10 -3.82136
v  -7.22362 -10 3.82136
v  -7.64886 2 -3.23607
v  2.23736 7.09053 -7.77955
v  -3.09017 2 -9.51056
v  3.59053 10 -0.967176
v  0.351141 10 -4.47035e-07
v  -3.09017 -4 -9.51056
v  4.35532 -4 -5.01843
v  0.220356 -10 -0.501913
v  -3.52719 -3.39713 8.90906
v  7.84622 -5.64707 3.99988
v  6.32681 7 -2.3049
v  8.09017 6.98248 3.48697
v  4.6013 10 5.0651
v  -4.29637 2 7.85038
v  5.59403 6.73606 6.6889
v  6.18806 -2 6.49589

# 0 UV coordinates

# 34 vertex normals
vn -0.999373 -0.0354146 -6.33016e-18
vn -0.999373 -0.0354146 2.44611e-09
vn -0.558903 0.723006 -0.406067
vn -0.237268 0.558726 -0.794688
vn -0.529766 0.812901 -0.24195
vn -0.707107 0.707107 -6.51205e-08
vn -0.809017 0 -0.587785
vn -0.809017 -4.05631e-09 -0.587785
vn 0.516595 -9.77439e-17 -0.85623
vn 0.425449 -0.141295 -0.893884
vn 0.365188 -0.7073 -0.605281
vn 0.267694 -0.753634 -0.600313
vn 0 -1 0
vn 0.364571 -0.68778 0.627732
vn 0.100832 -0.795116 0.598017
vn 0.614749 -0.698869 -0.365602
vn 0.801185 0.00402316 -0.598404
vn 0.572061 0.707107 -0.415627
vn 0.951859 -0.0990362 -0.290096
vn 0.930035 -0.0328284 -0.366003
vn 0.676384 0.707797 -0.203786
vn 0.623152 0.775099 -0.104416
vn 0 1 0
vn -0.55884 0.72308 0.406021
vn -0.521548 0.732437 0.437634
vn 0.0215729 0.195405 0.980485
vn -0.0951569 0.420048 0.902499
vn 0.24174 -0.00500041 0.970328
vn -0.809017 -1.43545e-07 0.587785
vn -0.809017 5.68126e-08 0.587785
vn 0.671932 0.483479 0.56103
vn 0.836989 0.00605527 0.547187
vn 0.786548 0.0398681 0.616241
vn 0.275744 -0.454354 0.84707

# Mesh '<STL_BINARY>' with 34 faces
g <STL_BINARY>
usemtl DefaultMaterial
f  1//1 2//1 3//1
f  1//1 4//2 2//1
f  5//3 6//3 4//3
f  7//4 4//4 8//4
f  7//5 5//5 4//5
f  8//6 4//6 1//6
f  9//7 4//7 6//7
f  9//7 2//8 4//7
f  10//9 9//9 6//9
f  5//10 10//10 6//10
f  11//11 9//11 10//11
f  11//12 2//12 9//12
f  3//13 2//13 11//13
f  12//14 3//14 11//14
f  13//15 12//15 11//15
f  10//16 13//16 11//16
f  5//17 14//17 10//17
f  7//18 14//18 5//18
f  10//19 14//19 15//19
f  13//20 10//20 15//20
f  7//21 15//21 14//21
f  16//22 15//22 7//22
f  7//23 8//23 16//23
f  17//24 8//24 1//24
f  17//25 16//25 8//25
f  18//26 17//26 12//26
f  18//27 16//27 17//27
f  19//28 18//28 12//28
f  12//29 17//29 1//29
f  12//29 1//29 3//30
f  16//31 18//31 15//31
f  19//32 13//32 15//32
f  18//33 19//33 15//33
f  19//34 12//34 13//34

